<?xml version="1.0" encoding="UTF-8" standalone="no" ?>
<!DOCTYPE svg PUBLIC "-//W3C//DTD SVG 1.1//EN" "http://www.w3.org/Graphics/SVG/1.1/DTD/svg11.dtd">
<svg xmlns="http://www.w3.org/2000/svg" xmlns:xlink="http://www.w3.org/1999/xlink" version="1.1" width="1080" height="1080" viewBox="0 0 1080 1080" xml:space="preserve">
<desc>Created with Fabric.js 5.2.4</desc>
<defs>
</defs>
<rect x="0" y="0" width="100%" height="100%" fill="transparent"></rect>
<g transform="matrix(1 0 0 1 540 540)" id="0246ae91-e05d-4259-ab9d-16c0a3c483a2"  >
<rect style="stroke: none; stroke-width: 1; stroke-dasharray: none; stroke-linecap: butt; stroke-dashoffset: 0; stroke-linejoin: miter; stroke-miterlimit: 4; fill: rgb(255,255,255); fill-rule: nonzero; opacity: 1; visibility: hidden;" vector-effect="non-scaling-stroke"  x="-540" y="-540" rx="0" ry="0" width="1080" height="1080" />
</g>
<g transform="matrix(1 0 0 1 540 540)" id="7e974fae-87c0-4111-95d2-9c300d9e6447"  >
</g>
<g transform="matrix(1 0 0 1 540 540)"  >
<g style="" vector-effect="non-scaling-stroke"   >
		<g transform="matrix(1.52 0 0 1.52 193.74 -249.89)"  >
<path style="stroke: none; stroke-width: 1; stroke-dasharray: none; stroke-linecap: butt; stroke-dashoffset: 0; stroke-linejoin: miter; stroke-miterlimit: 4; fill: rgb(255,255,255); fill-rule: nonzero; opacity: 1;" vector-effect="non-scaling-stroke"  transform=" translate(-383.34, -86.46)" d="M 384.923 93.0832 C 375.329 94.3243 373.311 82.7206 381.879 79.7724 C 391.345 79.2124 393.287 89.9132 384.923 93.0832 Z" stroke-linecap="round" />
</g>
		<g transform="matrix(1.52 0 0 1.52 0 0.48)"  >
<path style="stroke: none; stroke-width: 1; stroke-dasharray: none; stroke-linecap: butt; stroke-dashoffset: 0; stroke-linejoin: miter; stroke-miterlimit: 4; fill: rgb(255,255,255); fill-rule: nonzero; opacity: 1;" vector-effect="non-scaling-stroke"  transform=" translate(-256, -251.02)" d="M 133.653 252.815 C 134.093 247.812 133.665 241.156 133.659 235.926 L 133.641 103.224 C 133.639 95.7685 130.711 83.0495 139.58 81.1389 C 145.305 79.9055 159.029 80.5467 165.564 80.5613 L 292.656 80.5557 C 319.005 80.5565 311.986 78.7446 330.292 97.636 C 343.597 111.365 357.123 125.127 370.893 138.384 C 373.948 141.325 377.76 141.722 378.345 146.66 C 378.812 150.604 378.54 154.806 378.535 158.783 L 378.522 252.815 C 386.318 248.326 404.751 240.237 412.998 237.073 C 406.016 234.383 399.881 229.309 392.765 227.121 L 392.765 212.483 C 407.616 217.044 421.073 227.629 435.228 233.564 C 435.033 235.73 435.206 238.011 435.211 240.19 L 435.228 421.557 L 345.125 421.557 L 106.541 421.556 C 96.6346 421.557 86.6822 421.78 76.7813 421.557 L 76.7813 232.811 C 91.2446 226.702 104.479 217.963 119.263 212.483 C 119.82 216.789 119.577 222.712 119.263 227.121 C 112.648 230.485 105.706 233.429 99.2538 237.073 C 111.172 241.266 121.913 248.253 133.653 252.815 Z M 147.39 93.9874 C 147.246 100.125 147.386 106.287 147.387 112.427 L 147.39 259.797 L 147.647 259.888 C 156.696 263.166 168.121 269.384 176.959 273.582 L 230.384 298.615 C 243.503 304.718 251.811 312.725 266.398 306.008 C 288.127 296.002 309.836 285.74 331.304 275.176 C 341.929 270.089 353.89 263.95 364.764 259.797 L 364.764 153.522 L 326.476 153.513 C 318.53 153.513 305.271 156.846 304.209 146.478 C 303.631 140.836 304.08 134.744 304.08 129.055 L 304.085 93.9874 L 147.39 93.9874 Z M 317.964 104.912 L 317.964 140.022 L 352.352 140.022 C 345.476 130.962 326.826 112.93 317.964 104.912 Z M 421.57 248.384 C 406.422 252.824 381.277 266.84 366.523 273.885 L 296.078 307.335 C 289.762 310.395 283.279 313.179 277.041 316.381 L 277.048 349.998 C 277.047 355.057 278.734 366.127 274.859 370.102 C 272.447 372.576 267.978 372.769 265.62 370.105 C 262.45 366.523 263.802 354.497 263.801 349.978 L 263.809 321.807 C 258.683 322.545 253.762 322.67 248.652 321.807 L 248.675 340.694 C 248.68 344.405 249.813 351.121 246.858 354.036 C 242.614 358.221 235.932 356.152 235.006 350.404 C 234.417 346.753 234.772 342.662 234.774 338.968 L 234.805 316.381 C 224.903 311.937 215.211 306.944 205.396 302.305 L 127.433 265.435 C 115.317 259.699 103.309 253.671 90.9904 248.384 L 90.9904 250.953 L 90.9954 390.684 C 90.9963 396.531 91.1361 402.412 90.9904 408.255 C 103.161 408.475 115.374 408.255 127.549 408.255 L 421.57 408.255 L 421.57 266.899 C 421.57 260.866 421.128 254.491 421.976 248.514 L 421.722 248.331 L 421.57 248.384 Z" stroke-linecap="round" />
</g>
		<g transform="matrix(1.52 0 0 1.52 -63.69 -129.53)"  >
<path style="stroke: none; stroke-width: 1; stroke-dasharray: none; stroke-linecap: butt; stroke-dashoffset: 0; stroke-linejoin: miter; stroke-miterlimit: 4; fill: rgb(255,255,255); fill-rule: nonzero; opacity: 1;" vector-effect="non-scaling-stroke"  transform=" translate(-214.15, -165.57)" d="M 207.497 134.708 C 203.076 130.691 189.201 119.641 202.914 115.797 C 207.928 115.465 211.001 119.305 214.266 122.463 C 216.782 119.665 219.929 115.796 223.974 115.808 C 227.808 115.819 230.915 119.35 230.806 123.105 C 230.656 128.29 224.593 131.274 221.242 134.46 L 220.983 134.708 C 220.691 141.695 220.97 148.815 220.983 155.815 C 226.009 152.86 230.621 149.112 235.901 146.601 C 235.881 142.561 234.985 133.09 237.627 129.973 C 240.112 127.041 244.923 127.163 247.589 129.772 C 250.629 132.747 249.662 140.674 249.663 144.847 C 267.716 144.878 262.758 156.995 257.24 158.225 C 253.616 159.032 245.74 158.469 241.693 158.457 C 237.156 161.013 232.441 164.137 228.31 167.312 C 232.606 169.772 236.623 172.744 240.89 175.276 C 245.326 174.894 253.163 174.423 257.226 175.281 C 262.471 176.39 267.935 188.426 249.663 188.277 C 249.177 191.853 250.104 197.56 247.33 200.206 C 244.798 202.62 239.779 202.877 237.34 200.184 C 234.828 197.411 235.747 191.751 235.901 188.277 C 230.794 185.842 226.471 180.824 220.983 179.428 L 220.983 197.655 C 226.482 201.622 237.344 208.512 227.346 214.92 C 221.727 216.71 218.26 212.687 214.266 209.3 C 211.543 211.705 207.435 215.644 203.561 215.233 C 199.768 214.83 196.789 210.845 197.452 207.095 C 198.191 202.913 204.278 199.808 207.497 197.655 L 207.497 179.428 C 201.691 181.778 197.009 186.095 191.325 188.738 C 190.992 192.099 191.85 197.861 189.31 200.412 C 186.586 203.148 181.445 203.165 178.853 200.245 C 176.374 197.451 177.281 192.197 177.458 188.738 C 172.191 188.682 165.081 187.833 166.65 180.424 C 168.459 171.874 182.024 176.769 187.843 174.934 C 190.793 174.005 197.278 169.217 200.238 167.312 C 195.868 164.532 191.273 161.895 187.387 158.457 C 183.602 159.094 170.96 159.202 168.527 156.999 C 161.845 150.948 169.515 145.413 177.458 145.469 C 177.428 141.272 176.399 133.839 179.361 130.463 C 181.923 127.541 186.476 127.828 189.128 130.474 C 192.515 133.852 191.363 140.955 191.325 145.469 C 196.615 149.032 202.063 152.476 207.497 155.815 C 207.728 148.809 207.51 141.722 207.497 134.708 Z" stroke-linecap="round" />
</g>
		<g transform="matrix(1.52 0 0 1.52 85.89 -62.68)"  >
<path style="stroke: none; stroke-width: 1; stroke-dasharray: none; stroke-linecap: butt; stroke-dashoffset: 0; stroke-linejoin: miter; stroke-miterlimit: 4; fill: rgb(255,255,255); fill-rule: nonzero; opacity: 1;" vector-effect="non-scaling-stroke"  transform=" translate(-312.46, -209.51)" d="M 342.811 216.278 C 339.161 216.455 335.436 216.29 331.776 216.288 L 291.753 216.275 C 287.972 216.275 282.688 217.132 279.189 215.341 C 272.979 212.162 276.045 203.95 281.948 202.701 L 321.253 202.686 C 328.253 202.687 335.501 202.291 342.476 202.779 C 350.735 203.358 351.851 213.926 342.811 216.278 Z" stroke-linecap="round" />
</g>
		<g transform="matrix(1.52 0 0 1.52 2.15 -18.96)"  >
<path style="stroke: none; stroke-width: 1; stroke-dasharray: none; stroke-linecap: butt; stroke-dashoffset: 0; stroke-linejoin: miter; stroke-miterlimit: 4; fill: rgb(255,255,255); fill-rule: nonzero; opacity: 1;" vector-effect="non-scaling-stroke"  transform=" translate(-257.42, -238.24)" d="M 342.014 245.182 L 178.752 245.185 C 175.341 245.204 171.694 245.886 168.704 243.79 C 162.766 239.625 166.427 232.224 173.173 231.549 L 321.374 231.542 C 326.504 231.534 341.896 230.168 346.058 232.764 C 351.395 236.093 349.567 244.131 342.014 245.182 Z" stroke-linecap="round" />
</g>
		<g transform="matrix(1.52 0 0 1.52 -218.61 96.51)"  >
<path style="stroke: none; stroke-width: 1; stroke-dasharray: none; stroke-linecap: butt; stroke-dashoffset: 0; stroke-linejoin: miter; stroke-miterlimit: 4; fill: rgb(255,255,255); fill-rule: nonzero; opacity: 1;" vector-effect="non-scaling-stroke"  transform=" translate(-112.32, -314.14)" d="M 113.692 323.705 C 102.789 324.878 102.013 307.636 110.835 304.552 C 121.201 303.612 123.237 319.75 113.692 323.705 Z" stroke-linecap="round" />
</g>
		<g transform="matrix(1.52 0 0 1.52 164.9 123.78)"  >
<path style="stroke: none; stroke-width: 1; stroke-dasharray: none; stroke-linecap: butt; stroke-dashoffset: 0; stroke-linejoin: miter; stroke-miterlimit: 4; fill: rgb(255,255,255); fill-rule: nonzero; opacity: 1;" vector-effect="non-scaling-stroke"  transform=" translate(-364.38, -332.06)" d="M 366.563 352.493 C 338.548 354.846 335.486 314.085 363.341 311.6 C 387.615 309.655 394.794 347.733 366.563 352.493 Z M 363.341 325.781 C 353.679 328.566 356.753 340.339 366.563 338.725 C 374.139 335.435 371.674 324.98 363.341 325.781 Z" stroke-linecap="round" />
</g>
		<g transform="matrix(1.52 0 0 1.52 -218.76 171.24)"  >
<path style="stroke: none; stroke-width: 1; stroke-dasharray: none; stroke-linecap: butt; stroke-dashoffset: 0; stroke-linejoin: miter; stroke-miterlimit: 4; fill: rgb(255,255,255); fill-rule: nonzero; opacity: 1;" vector-effect="non-scaling-stroke"  transform=" translate(-112.22, -363.25)" d="M 112.79 391.436 C 102.324 390.921 105.504 376.99 105.501 369.617 L 105.5 352.36 C 105.505 345.924 103.472 336.517 111.932 335.064 C 120.179 335.576 119.265 342.561 119.272 348.619 L 119.27 375.94 C 119.272 382.046 120.845 390.156 112.79 391.436 Z" stroke-linecap="round" />
</g>
</g>
</g>
</svg>